<svg width="48" height="48" viewBox="0 0 48 48" fill="none" xmlns="http://www.w3.org/2000/svg">
<path d="M46 10H2V38H46V10Z" fill="#3F51B5"/>
<path d="M2 14.216L22.81 26.935L25.939 21.815L6.608 10H2V14.216Z" fill="white"/>
<path d="M46 10H42.391L23.061 21.814L26.189 26.935L46 14.826V10Z" fill="white"/>
<path d="M26.189 20.271L23.061 25.391L43.691 38H46V32.379L26.189 20.271Z" fill="white"/>
<path d="M2 32.991V38H5.31L25.939 25.392L22.811 20.271L2 32.991Z" fill="white"/>
<path d="M46 20H2V28H46V20Z" fill="white"/>
<path d="M28 10H20V38H28V10Z" fill="white"/>
<path d="M17.218 20L2 10.699V13.043L13.382 20H17.218Z" fill="#E53935"/>
<path d="M44.3088 10L27.9468 20H31.7818L45.9998 11.311V10H44.3088Z" fill="#E53935"/>
<path d="M33.082 28L46 35.895V33.551L36.917 28H33.082Z" fill="#E53935"/>
<path d="M15.918 28L2 36.506V38H3.392L19.753 28H15.918Z" fill="#E53935"/>
<path d="M46 22H2V26H46V22Z" fill="#E53935"/>
<path d="M26 10H22V38H26V10Z" fill="#E53935"/>
</svg>
