<svg width="48" height="48" viewBox="0 0 48 48" fill="none" xmlns="http://www.w3.org/2000/svg">
<path d="M46 9H2V19H46V9Z" fill="#FF9800"/>
<path d="M46 19H2V29H46V19Z" fill="#F5F5F5"/>
<path d="M46 29H2V39H46V29Z" fill="#388E3C"/>
<path d="M23.9999 20.0891C21.8399 20.0891 20.0889 21.8401 20.0889 24.0001C20.0889 26.1601 21.8399 27.9111 23.9999 27.9111C26.1599 27.9111 27.9109 26.1601 27.9109 24.0001C27.9109 21.8401 26.1599 20.0891 23.9999 20.0891ZM23.9999 27.4221C22.1099 27.4221 20.5779 25.8901 20.5779 24.0001C20.5779 22.1101 22.1099 20.5781 23.9999 20.5781C25.8899 20.5781 27.4219 22.1101 27.4219 24.0001C27.4219 25.8901 25.8899 27.4221 23.9999 27.4221Z" fill="#000088"/>
<path d="M23.9999 24.6839C24.3777 24.6839 24.6839 24.3777 24.6839 23.9999C24.6839 23.6222 24.3777 23.3159 23.9999 23.3159C23.6222 23.3159 23.3159 23.6222 23.3159 23.9999C23.3159 24.3777 23.6222 24.6839 23.9999 24.6839Z" fill="#000088"/>
<path d="M27.5645 24.4681C27.5769 24.3745 27.5109 24.2886 27.4173 24.2762C27.3237 24.2639 27.2378 24.3298 27.2254 24.4235C27.2131 24.5171 27.279 24.603 27.3727 24.6153C27.4663 24.6277 27.5522 24.5617 27.5645 24.4681Z" fill="#000088"/>
<path d="M23.9998 27.4221L24.1168 25.3691L23.9998 24.3911L23.8828 25.3691L23.9998 27.4221Z" fill="#000088"/>
<path d="M27.3214 25.376C27.3575 25.2887 27.3161 25.1887 27.2288 25.1525C27.1416 25.1164 27.0415 25.1578 27.0054 25.2451C26.9692 25.3323 27.0107 25.4324 27.0979 25.4685C27.1852 25.5047 27.2852 25.4632 27.3214 25.376Z" fill="#000088"/>
<path d="M23.1138 27.3059L23.7588 25.3529L23.8988 24.3779L23.5328 25.2919L23.1138 27.3059Z" fill="#000088"/>
<path d="M26.8525 26.1873C26.91 26.1124 26.8959 26.005 26.8209 25.9475C26.746 25.89 26.6387 25.9041 26.5812 25.9791C26.5237 26.054 26.5378 26.1614 26.6127 26.2189C26.6877 26.2763 26.795 26.2622 26.8525 26.1873Z" fill="#000088"/>
<path d="M22.2891 26.9641L23.4171 25.2441L23.8041 24.3391L23.2131 25.1271L22.2891 26.9641Z" fill="#000088"/>
<path d="M26.1896 26.8508C26.2645 26.7933 26.2786 26.686 26.2211 26.6111C26.1637 26.5361 26.0563 26.522 25.9814 26.5795C25.9064 26.637 25.8923 26.7443 25.9498 26.8193C26.0073 26.8942 26.1147 26.9083 26.1896 26.8508Z" fill="#000088"/>
<path d="M21.5801 26.4201L23.1151 25.0511L23.7231 24.2771L22.9491 24.8851L21.5801 26.4201Z" fill="#000088"/>
<path d="M25.3768 27.3189C25.464 27.2828 25.5055 27.1827 25.4693 27.0955C25.4332 27.0082 25.3331 26.9668 25.2459 27.0029C25.1586 27.0391 25.1172 27.1391 25.1533 27.2263C25.1895 27.3136 25.2895 27.355 25.3768 27.3189Z" fill="#000088"/>
<path d="M21.0361 25.7111L22.8731 24.7861L23.6611 24.1951L22.7561 24.5821L21.0361 25.7111Z" fill="#000088"/>
<path d="M24.471 27.5636C24.5647 27.5513 24.6306 27.4654 24.6182 27.3717C24.6059 27.2781 24.52 27.2122 24.4264 27.2245C24.3327 27.2368 24.2668 27.3227 24.2792 27.4164C24.2915 27.51 24.3774 27.5759 24.471 27.5636Z" fill="#000088"/>
<path d="M20.6938 24.8861L22.7078 24.4681L23.6218 24.1021L22.6468 24.2421L20.6938 24.8861Z" fill="#000088"/>
<path d="M23.7217 27.4171C23.734 27.3235 23.6681 27.2376 23.5745 27.2252C23.4809 27.2129 23.395 27.2788 23.3827 27.3725C23.3703 27.4661 23.4363 27.552 23.5299 27.5643C23.6235 27.5766 23.7094 27.5107 23.7217 27.4171Z" fill="#000088"/>
<path d="M20.5781 24.0001L22.6311 24.1171L23.6091 24.0001L22.6311 23.8831L20.5781 24.0001Z" fill="#000088"/>
<path d="M22.8497 27.2288C22.8858 27.1415 22.8444 27.0415 22.7571 27.0053C22.6699 26.9692 22.5698 27.0106 22.5337 27.0979C22.4976 27.1851 22.539 27.2852 22.6262 27.3213C22.7135 27.3574 22.8135 27.316 22.8497 27.2288Z" fill="#000088"/>
<path d="M20.6938 23.114L22.6468 23.759L23.6218 23.899L22.7078 23.533L20.6938 23.114Z" fill="#000088"/>
<path d="M22.0546 26.8189C22.1121 26.7439 22.098 26.6366 22.0231 26.5791C21.9482 26.5216 21.8408 26.5357 21.7833 26.6107C21.7258 26.6856 21.7399 26.7929 21.8149 26.8504C21.8898 26.9079 21.9972 26.8938 22.0546 26.8189Z" fill="#000088"/>
<path d="M21.0361 22.2891L22.7561 23.4171L23.6611 23.8041L22.8731 23.2141L21.0361 22.2891Z" fill="#000088"/>
<path d="M21.3908 26.219C21.4657 26.1615 21.4798 26.0541 21.4223 25.9792C21.3648 25.9043 21.2575 25.8902 21.1825 25.9477C21.1076 26.0051 21.0935 26.1125 21.151 26.1874C21.2085 26.2624 21.3158 26.2765 21.3908 26.219Z" fill="#000088"/>
<path d="M21.5801 21.5801L22.9491 23.1151L23.7231 23.7231L23.1151 22.9491L21.5801 21.5801Z" fill="#000088"/>
<path d="M20.9051 25.4673C20.9923 25.4312 21.0338 25.3312 20.9976 25.2439C20.9615 25.1566 20.8615 25.1152 20.7742 25.1514C20.6869 25.1875 20.6455 25.2875 20.6817 25.3748C20.7178 25.462 20.8178 25.5035 20.9051 25.4673Z" fill="#000088"/>
<path d="M22.2891 21.0359L23.2141 22.8729L23.8051 23.6609L23.4181 22.7559L22.2891 21.0359Z" fill="#000088"/>
<path d="M20.6287 24.6151C20.7223 24.6028 20.7882 24.5169 20.7759 24.4232C20.7636 24.3296 20.6777 24.2637 20.5841 24.276C20.4905 24.2883 20.4245 24.3742 20.4369 24.4679C20.4492 24.5615 20.5351 24.6274 20.6287 24.6151Z" fill="#000088"/>
<path d="M23.1138 20.6941L23.5318 22.7081L23.8978 23.6221L23.7578 22.6471L23.1138 20.6941Z" fill="#000088"/>
<path d="M20.7774 23.575C20.7897 23.4814 20.7238 23.3955 20.6302 23.3832C20.5366 23.3709 20.4507 23.4368 20.4383 23.5304C20.426 23.624 20.4919 23.7099 20.5856 23.7223C20.6792 23.7346 20.7651 23.6687 20.7774 23.575Z" fill="#000088"/>
<path d="M23.9998 20.5779L23.8828 22.6309L23.9998 23.6089L24.1168 22.6309L23.9998 20.5779Z" fill="#000088"/>
<path d="M20.9952 22.7553C21.0313 22.6681 20.9899 22.5681 20.9026 22.5319C20.8154 22.4958 20.7153 22.5372 20.6792 22.6245C20.6431 22.7117 20.6845 22.8118 20.7718 22.8479C20.859 22.884 20.959 22.8426 20.9952 22.7553Z" fill="#000088"/>
<path d="M24.8861 20.6941L24.2411 22.6471L24.1011 23.6221L24.4671 22.7081L24.8861 20.6941Z" fill="#000088"/>
<path d="M21.4208 22.0193C21.4783 21.9444 21.4642 21.837 21.3893 21.7795C21.3143 21.722 21.207 21.7362 21.1495 21.8111C21.092 21.886 21.1062 21.9934 21.1811 22.0509C21.256 22.1084 21.3634 22.0942 21.4208 22.0193Z" fill="#000088"/>
<path d="M25.7108 21.0359L24.5828 22.7559L24.1958 23.6609L24.7858 22.8729L25.7108 21.0359Z" fill="#000088"/>
<path d="M22.0231 21.4204C22.098 21.3629 22.1121 21.2556 22.0546 21.1806C21.9972 21.1057 21.8898 21.0916 21.8149 21.1491C21.7399 21.2066 21.7258 21.3139 21.7833 21.3888C21.8408 21.4638 21.9482 21.4779 22.0231 21.4204Z" fill="#000088"/>
<path d="M26.4199 21.5801L24.8849 22.9491L24.2769 23.7231L25.0509 23.1151L26.4199 21.5801Z" fill="#000088"/>
<path d="M22.7557 20.9978C22.8429 20.9617 22.8844 20.8617 22.8482 20.7744C22.8121 20.6872 22.712 20.6457 22.6248 20.6819C22.5375 20.718 22.4961 20.818 22.5322 20.9053C22.5684 20.9926 22.6684 21.034 22.7557 20.9978Z" fill="#000088"/>
<path d="M26.9639 22.2891L25.1269 23.2141L24.3389 23.8041L25.2439 23.4171L26.9639 22.2891Z" fill="#000088"/>
<path d="M23.575 20.7752C23.6687 20.7629 23.7346 20.677 23.7222 20.5834C23.7099 20.4897 23.624 20.4238 23.5304 20.4362C23.4367 20.4485 23.3708 20.5344 23.3832 20.628C23.3955 20.7217 23.4814 20.7876 23.575 20.7752Z" fill="#000088"/>
<path d="M27.3059 23.114L25.2919 23.532L24.3779 23.898L25.3529 23.758L27.3059 23.114Z" fill="#000088"/>
<path d="M24.6158 20.6305C24.6281 20.5369 24.5622 20.451 24.4686 20.4386C24.375 20.4263 24.2891 20.4922 24.2767 20.5858C24.2644 20.6795 24.3303 20.7654 24.4239 20.7777C24.5176 20.79 24.6035 20.7241 24.6158 20.6305Z" fill="#000088"/>
<path d="M27.4221 24.0001L25.3691 23.8831L24.3911 24.0001L25.3691 24.1171L27.4221 24.0001Z" fill="#000088"/>
<path d="M25.4674 20.9014C25.5035 20.8141 25.4621 20.7141 25.3748 20.6779C25.2876 20.6418 25.1875 20.6832 25.1514 20.7705C25.1152 20.8577 25.1567 20.9578 25.2439 20.9939C25.3312 21.0301 25.4312 20.9886 25.4674 20.9014Z" fill="#000088"/>
<path d="M27.3059 24.8861L25.3529 24.2411L24.3779 24.1011L25.2919 24.4671L27.3059 24.8861Z" fill="#000088"/>
<path d="M26.2211 21.3894C26.2786 21.3145 26.2645 21.2072 26.1896 21.1497C26.1147 21.0922 26.0073 21.1063 25.9498 21.1812C25.8923 21.2562 25.9064 21.3635 25.9814 21.421C26.0563 21.4785 26.1637 21.4644 26.2211 21.3894Z" fill="#000088"/>
<path d="M26.9639 25.711L25.2439 24.583L24.3389 24.196L25.1269 24.787L26.9639 25.711Z" fill="#000088"/>
<path d="M26.8185 22.052C26.8934 21.9945 26.9075 21.8871 26.85 21.8122C26.7925 21.7373 26.6852 21.7232 26.6103 21.7807C26.5353 21.8382 26.5212 21.9455 26.5787 22.0204C26.6362 22.0953 26.7436 22.1095 26.8185 22.052Z" fill="#000088"/>
<path d="M26.4199 26.4201L25.0509 24.8851L24.2769 24.2771L24.8849 25.0511L26.4199 26.4201Z" fill="#000088"/>
<path d="M27.2268 22.8484C27.3141 22.8123 27.3555 22.7123 27.3194 22.625C27.2833 22.5378 27.1832 22.4963 27.096 22.5325C27.0087 22.5686 26.9673 22.6686 27.0034 22.7559C27.0395 22.8431 27.1396 22.8846 27.2268 22.8484Z" fill="#000088"/>
<path d="M25.7108 26.9641L24.7858 25.1271L24.1958 24.3391L24.5828 25.2441L25.7108 26.9641Z" fill="#000088"/>
<path d="M27.4168 23.7233C27.5105 23.7109 27.5764 23.625 27.564 23.5314C27.5517 23.4378 27.4658 23.3719 27.3722 23.3842C27.2785 23.3965 27.2126 23.4824 27.225 23.576C27.2373 23.6697 27.3232 23.7356 27.4168 23.7233Z" fill="#000088"/>
<path d="M24.8861 27.3059L24.4681 25.2919L24.1021 24.3779L24.2421 25.3529L24.8861 27.3059Z" fill="#000088"/>
</svg>
