<svg width="48" height="48" viewBox="0 0 48 48" fill="none" xmlns="http://www.w3.org/2000/svg">
<path d="M45.998 10H1.99805V37H45.998V10Z" fill="#ECEFF1"/>
<path d="M46 10H2V13H46V10Z" fill="#F44336"/>
<path d="M46 16H2V19H46V16Z" fill="#F44336"/>
<path d="M46 22H2V25H46V22Z" fill="#F44336"/>
<path d="M46 28H2V31H46V28Z" fill="#F44336"/>
<path d="M46 34H2V37H46V34Z" fill="#F44336"/>
<path d="M23 10H2V25H23V10Z" fill="#3F51B5"/>
<path d="M4.25 12L4.713 12.988L5.75 13.146L5 13.916L5.178 15L4.25 14.488L3.322 15L3.5 13.916L2.75 13.146L3.787 12.988L4.25 12Z" fill="white"/>
<path d="M8.25 12L8.713 12.988L9.75 13.146L9 13.916L9.178 15L8.25 14.488L7.322 15L7.5 13.916L6.75 13.146L7.787 12.988L8.25 12Z" fill="white"/>
<path d="M12.25 12L12.713 12.988L13.75 13.146L13 13.916L13.178 15L12.25 14.488L11.322 15L11.5 13.916L10.75 13.146L11.787 12.988L12.25 12Z" fill="white"/>
<path d="M16.25 12L16.713 12.988L17.75 13.146L17 13.916L17.178 15L16.25 14.488L15.322 15L15.5 13.916L14.75 13.146L15.787 12.988L16.25 12Z" fill="white"/>
<path d="M20 12L20.463 12.988L21.5 13.146L20.75 13.916L20.928 15L20 14.488L19.072 15L19.25 13.916L18.5 13.146L19.537 12.988L20 12Z" fill="white"/>
<path d="M4.25 20L4.713 20.988L5.75 21.146L5 21.916L5.178 23L4.25 22.488L3.322 23L3.5 21.916L2.75 21.146L3.787 20.988L4.25 20Z" fill="white"/>
<path d="M8.25 20L8.713 20.988L9.75 21.146L9 21.916L9.178 23L8.25 22.488L7.322 23L7.5 21.916L6.75 21.146L7.787 20.988L8.25 20Z" fill="white"/>
<path d="M12.25 20L12.713 20.988L13.75 21.146L13 21.916L13.178 23L12.25 22.488L11.322 23L11.5 21.916L10.75 21.146L11.787 20.988L12.25 20Z" fill="white"/>
<path d="M16.25 20L16.713 20.988L17.75 21.146L17 21.916L17.178 23L16.25 22.488L15.322 23L15.5 21.916L14.75 21.146L15.787 20.988L16.25 20Z" fill="white"/>
<path d="M20 20L20.463 20.988L21.5 21.146L20.75 21.916L20.928 23L20 22.488L19.072 23L19.25 21.916L18.5 21.146L19.537 20.988L20 20Z" fill="white"/>
<path d="M5.25 16L5.713 16.988L6.75 17.146L6 17.916L6.178 19L5.25 18.488L4.322 19L4.5 17.916L3.75 17.146L4.787 16.988L5.25 16Z" fill="white"/>
<path d="M9.25 16L9.713 16.988L10.75 17.146L10 17.916L10.178 19L9.25 18.488L8.322 19L8.5 17.916L7.75 17.146L8.787 16.988L9.25 16Z" fill="white"/>
<path d="M13.25 16L13.713 16.988L14.75 17.146L14 17.916L14.178 19L13.25 18.488L12.322 19L12.5 17.916L11.75 17.146L12.787 16.988L13.25 16Z" fill="white"/>
<path d="M17.25 16L17.713 16.988L18.75 17.146L18 17.916L18.178 19L17.25 18.488L16.322 19L16.5 17.916L15.75 17.146L16.787 16.988L17.25 16Z" fill="white"/>
<path d="M21 16L21.463 16.988L22.5 17.146L21.75 17.916L21.928 19L21 18.488L20.072 19L20.25 17.916L19.5 17.146L20.537 16.988L21 16Z" fill="white"/>
</svg>
